<mxfile host="app.diagrams.net" modified="2020-09-17T12:00:00.846Z" agent="5.0 (Windows NT 10.0; Win64; x64) AppleWebKit/537.36 (KHTML, like Gecko) Chrome/85.0.4183.102 Safari/537.36" etag="lqwehgPKACb1WtoXKkRM" version="13.6.2" type="github">
  <diagram id="2IX7VbgAEWcEHRuC47fX" name="Page-1">
    <mxGraphModel dx="868" dy="1602" grid="1" gridSize="10" guides="1" tooltips="1" connect="1" arrows="1" fold="1" page="1" pageScale="1" pageWidth="827" pageHeight="1169" math="0" shadow="0">
      <root>
        <mxCell id="0" />
        <mxCell id="1" parent="0" />
        <UserObject label="Process" lucidchartObjectId="H-Ewxnxq5-2x" id="szmz4Ih0qqdPRHBZK8QK-1">
          <mxCell style="html=1;whiteSpace=wrap;;fontSize=11;fontColor=#000000;spacing=7;strokeOpacity=100;" vertex="1" zOrder="-1" parent="1">
            <mxGeometry x="768" y="-738" width="204" height="325" as="geometry" />
          </mxCell>
        </UserObject>
        <UserObject label="Security Guarde" lucidchartObjectId="yxEwoaHR5mO7" id="szmz4Ih0qqdPRHBZK8QK-2">
          <mxCell style="html=1;whiteSpace=wrap;strokeColor=none;fontSize=11;fontColor=#000000;spacing=0;strokeOpacity=100;" vertex="1" zOrder="0" parent="1">
            <mxGeometry x="36" y="-768" width="144" height="36" as="geometry" />
          </mxCell>
        </UserObject>
        <UserObject label="" lucidchartObjectId="pzDwwHxr49aI" id="szmz4Ih0qqdPRHBZK8QK-3">
          <mxCell style="html=1;whiteSpace=wrap;;fontSize=11;spacing=7;strokeOpacity=100;" vertex="1" zOrder="1" parent="1">
            <mxGeometry x="12" y="-732" width="192" height="324" as="geometry" />
          </mxCell>
        </UserObject>
        <UserObject label="" lucidchartObjectId="uiGw86-2WIph" id="szmz4Ih0qqdPRHBZK8QK-4">
          <mxCell style="html=1;jettySize=18;fontSize=11;rounded=1;arcSize=0;edgeStyle=elbowEdgeStyle;startArrow=none;;endArrow=block;endFill=1;;" edge="1" parent="1">
            <mxGeometry width="100" height="100" relative="1" as="geometry">
              <Array as="points" />
              <mxPoint x="330" y="276" as="sourcePoint" />
              <mxPoint x="390" y="276" as="targetPoint" />
            </mxGeometry>
          </mxCell>
        </UserObject>
        <UserObject label="" lucidchartObjectId="vjGw5mjvRE_f" id="szmz4Ih0qqdPRHBZK8QK-5">
          <mxCell style="html=1;jettySize=18;fontSize=11;rounded=1;arcSize=0;edgeStyle=elbowEdgeStyle;startArrow=none;;endArrow=block;endFill=1;;" edge="1" parent="1">
            <mxGeometry width="100" height="100" relative="1" as="geometry">
              <Array as="points" />
              <mxPoint x="330" y="276" as="sourcePoint" />
              <mxPoint x="390" y="276" as="targetPoint" />
            </mxGeometry>
          </mxCell>
        </UserObject>
        <UserObject label="" lucidchartObjectId="6ADwcJaTTrj8" id="szmz4Ih0qqdPRHBZK8QK-6">
          <mxCell style="html=1;whiteSpace=wrap;shape=image;fontSize=11;spacing=0;strokeColor=none;strokeOpacity=100;strokeWidth=0;image=https://images.app.lucidchart.com/images/e1f1ccbd-1fcc-44f3-9baa-c4e6364228b6/content;" vertex="1" zOrder="2" parent="1">
            <mxGeometry x="13" y="-448" width="37" height="40" as="geometry" />
          </mxCell>
        </UserObject>
        <UserObject label="" lucidchartObjectId="_BDwXaC0FVLP" id="szmz4Ih0qqdPRHBZK8QK-7">
          <mxCell style="html=1;whiteSpace=wrap;shape=image;fontSize=11;spacing=0;strokeColor=none;strokeOpacity=100;strokeWidth=0;image=https://images.app.lucidchart.com/images/3a908d80-9f85-4c4c-aa85-2458ae20dbf4/content;" vertex="1" zOrder="3" parent="1">
            <mxGeometry x="60" y="-444" width="37" height="40" as="geometry" />
          </mxCell>
        </UserObject>
        <UserObject label="" lucidchartObjectId="5CDwqNN73ixh" id="szmz4Ih0qqdPRHBZK8QK-8">
          <mxCell style="html=1;whiteSpace=wrap;shape=image;fontSize=11;spacing=0;strokeColor=none;strokeOpacity=100;strokeWidth=0;image=https://images.app.lucidchart.com/images/6212b15c-db97-46a9-8765-ff9c5da97a0d/content;" vertex="1" zOrder="4" parent="1">
            <mxGeometry x="113" y="-448" width="39" height="40" as="geometry" />
          </mxCell>
        </UserObject>
        <UserObject label="" lucidchartObjectId="8DDwbflcGBhq" id="szmz4Ih0qqdPRHBZK8QK-9">
          <mxCell style="html=1;whiteSpace=wrap;shape=image;fontSize=11;spacing=0;strokeColor=none;strokeOpacity=100;strokeWidth=0;image=https://images.app.lucidchart.com/images/7d8e6fdd-2dd8-4db6-a04e-7de87b221550/content;" vertex="1" zOrder="5" parent="1">
            <mxGeometry x="156" y="-448" width="36" height="36" as="geometry" />
          </mxCell>
        </UserObject>
        <UserObject label="Recidance" lucidchartObjectId="xFDwQbyQOma." id="szmz4Ih0qqdPRHBZK8QK-10">
          <mxCell style="html=1;whiteSpace=wrap;ellipse;fontSize=8;fontColor=#000000;fontStyle=1;spacing=3;strokeOpacity=100;" vertex="1" zOrder="6" parent="1">
            <mxGeometry x="36" y="-672" width="48" height="48" as="geometry" />
          </mxCell>
        </UserObject>
        <UserObject label="Parking" lucidchartObjectId="MFDwHUqPqoLt" id="szmz4Ih0qqdPRHBZK8QK-11">
          <mxCell style="html=1;whiteSpace=wrap;ellipse;fontSize=9;fontColor=#000000;fontStyle=1;spacing=3;strokeOpacity=100;" vertex="1" zOrder="7" parent="1">
            <mxGeometry x="120" y="-672" width="48" height="48" as="geometry" />
          </mxCell>
        </UserObject>
        <UserObject label="Guest parking" lucidchartObjectId="WlEwDCl84P~x" id="szmz4Ih0qqdPRHBZK8QK-12">
          <mxCell style="html=1;whiteSpace=wrap;ellipse;fontSize=9;fontColor=#000000;fontStyle=1;spacing=3;strokeOpacity=100;" vertex="1" zOrder="8" parent="1">
            <mxGeometry x="120" y="-600" width="48" height="48" as="geometry" />
          </mxCell>
        </UserObject>
        <UserObject label="Security Alert" lucidchartObjectId="RnEwQOdoxyBb" id="szmz4Ih0qqdPRHBZK8QK-13">
          <mxCell style="html=1;whiteSpace=wrap;ellipse;fontSize=8;fontColor=#000000;fontStyle=1;spacing=3;strokeOpacity=100;" vertex="1" zOrder="9" parent="1">
            <mxGeometry x="36" y="-600" width="48" height="48" as="geometry" />
          </mxCell>
        </UserObject>
        <UserObject label="Given Item" lucidchartObjectId="2qEwMOiwCPGH" id="szmz4Ih0qqdPRHBZK8QK-14">
          <mxCell style="html=1;whiteSpace=wrap;ellipse;fontSize=8;fontColor=#000000;fontStyle=1;spacing=3;strokeOpacity=100;" vertex="1" zOrder="10" parent="1">
            <mxGeometry x="36" y="-528" width="48" height="48" as="geometry" />
          </mxCell>
        </UserObject>
        <UserObject label="Dilevered to Security" lucidchartObjectId="JrEwtjFEHQ_L" id="szmz4Ih0qqdPRHBZK8QK-15">
          <mxCell style="html=1;whiteSpace=wrap;ellipse;fontSize=8;fontColor=#000000;fontStyle=1;spacing=3;strokeOpacity=100;" vertex="1" zOrder="11" parent="1">
            <mxGeometry x="120" y="-528" width="48" height="48" as="geometry" />
          </mxCell>
        </UserObject>
        <UserObject label="" lucidchartObjectId="NuEwa2ApNC4E" id="szmz4Ih0qqdPRHBZK8QK-16">
          <mxCell style="html=1;whiteSpace=wrap;shape=image;fontSize=11;spacing=0;strokeColor=none;strokeOpacity=100;strokeWidth=0;image=https://images.app.lucidchart.com/images/1aadf8a4-94a9-4e43-bdd0-10c092a80ef5/content;" vertex="1" zOrder="12" parent="1">
            <mxGeometry x="156" y="-720" width="36" height="36" as="geometry" />
          </mxCell>
        </UserObject>
        <UserObject label="Click on Recidance" lucidchartObjectId="jzEw2cQG.3~n" id="szmz4Ih0qqdPRHBZK8QK-17">
          <mxCell style="html=1;whiteSpace=wrap;strokeColor=none;fontSize=11;fontColor=#000000;spacing=0;strokeOpacity=100;" vertex="1" zOrder="13" parent="1">
            <mxGeometry x="216" y="-768" width="144" height="36" as="geometry" />
          </mxCell>
        </UserObject>
        <UserObject label="" lucidchartObjectId="KFEweIsO8UM." id="szmz4Ih0qqdPRHBZK8QK-18">
          <mxCell style="html=1;whiteSpace=wrap;;fontSize=11;spacing=7;strokeOpacity=100;" vertex="1" zOrder="15" parent="1">
            <mxGeometry x="228" y="-732" width="192" height="324" as="geometry" />
          </mxCell>
        </UserObject>
        <UserObject label="Recidance Details            (Flat no or Mobile no) " lucidchartObjectId="-GEwI_7_lhQf" id="szmz4Ih0qqdPRHBZK8QK-19">
          <mxCell style="html=1;whiteSpace=wrap;rounded=1;arcSize=50;fontSize=11;fontColor=#000000;spacing=3;strokeOpacity=100;" vertex="1" zOrder="16" parent="1">
            <mxGeometry x="252" y="-612" width="144" height="60" as="geometry" />
          </mxCell>
        </UserObject>
        <UserObject label="" lucidchartObjectId="IKEwubtu3fW-" id="szmz4Ih0qqdPRHBZK8QK-20">
          <mxCell style="html=1;whiteSpace=wrap;shape=image;fontSize=11;spacing=0;strokeColor=none;strokeOpacity=100;strokeWidth=0;image=https://images.app.lucidchart.com/images/bb67e6d4-f212-4169-abc3-5716e61b1323/content;" vertex="1" zOrder="17" parent="1">
            <mxGeometry x="348" y="-684" width="67" height="67" as="geometry" />
          </mxCell>
        </UserObject>
        <UserObject label="" lucidchartObjectId="-KEw--GEk-9o" id="szmz4Ih0qqdPRHBZK8QK-21">
          <mxCell style="html=1;whiteSpace=wrap;shape=image;fontSize=11;spacing=0;strokeColor=none;strokeOpacity=100;strokeWidth=0;image=https://images.app.lucidchart.com/images/1aadf8a4-94a9-4e43-bdd0-10c092a80ef5/content;" vertex="1" zOrder="18" parent="1">
            <mxGeometry x="367" y="-725" width="36" height="36" as="geometry" />
          </mxCell>
        </UserObject>
        <UserObject label="Block Name" lucidchartObjectId="qLEwCwtI.pGT" id="szmz4Ih0qqdPRHBZK8QK-22">
          <mxCell style="html=1;whiteSpace=wrap;;fontSize=11;fontColor=#000000;spacing=7;strokeOpacity=100;" vertex="1" zOrder="19" parent="1">
            <mxGeometry x="240" y="-672" width="108" height="36" as="geometry" />
          </mxCell>
        </UserObject>
        <UserObject label="Search" lucidchartObjectId="eMEw5gQ3gT59" id="szmz4Ih0qqdPRHBZK8QK-23">
          <mxCell style="html=1;whiteSpace=wrap;rounded=1;arcSize=50;fontSize=11;fontColor=#000000;spacing=3;strokeOpacity=100;" vertex="1" zOrder="20" parent="1">
            <mxGeometry x="276" y="-528" width="96" height="48" as="geometry" />
          </mxCell>
        </UserObject>
        <UserObject label="" lucidchartObjectId="6MEwPI1KnDYH" id="szmz4Ih0qqdPRHBZK8QK-24">
          <mxCell style="html=1;whiteSpace=wrap;shape=image;fontSize=11;spacing=0;strokeColor=none;strokeOpacity=100;strokeWidth=0;image=https://images.app.lucidchart.com/images/e1f1ccbd-1fcc-44f3-9baa-c4e6364228b6/content;" vertex="1" zOrder="21" parent="1">
            <mxGeometry x="239" y="-448" width="37" height="40" as="geometry" />
          </mxCell>
        </UserObject>
        <UserObject label="" lucidchartObjectId="fNEwq~UxldxB" id="szmz4Ih0qqdPRHBZK8QK-25">
          <mxCell style="html=1;whiteSpace=wrap;shape=image;fontSize=11;spacing=0;strokeColor=none;strokeOpacity=100;strokeWidth=0;image=https://images.app.lucidchart.com/images/3a908d80-9f85-4c4c-aa85-2458ae20dbf4/content;" vertex="1" zOrder="22" parent="1">
            <mxGeometry x="290" y="-444" width="34" height="37" as="geometry" />
          </mxCell>
        </UserObject>
        <UserObject label="" lucidchartObjectId="kNEw4K.dDnkn" id="szmz4Ih0qqdPRHBZK8QK-26">
          <mxCell style="html=1;whiteSpace=wrap;shape=image;fontSize=11;spacing=0;strokeColor=none;strokeOpacity=100;strokeWidth=0;image=https://images.app.lucidchart.com/images/6212b15c-db97-46a9-8765-ff9c5da97a0d/content;" vertex="1" zOrder="23" parent="1">
            <mxGeometry x="333" y="-444" width="39" height="40" as="geometry" />
          </mxCell>
        </UserObject>
        <UserObject label="" lucidchartObjectId="vNEw~JN0pupP" id="szmz4Ih0qqdPRHBZK8QK-27">
          <mxCell style="html=1;whiteSpace=wrap;shape=image;fontSize=11;spacing=0;strokeColor=none;strokeOpacity=100;strokeWidth=0;image=https://images.app.lucidchart.com/images/7d8e6fdd-2dd8-4db6-a04e-7de87b221550/content;" vertex="1" zOrder="24" parent="1">
            <mxGeometry x="380" y="-444" width="36" height="36" as="geometry" />
          </mxCell>
        </UserObject>
        <UserObject label="" lucidchartObjectId="WOEwxR8rK-6~" id="szmz4Ih0qqdPRHBZK8QK-28">
          <mxCell style="html=1;whiteSpace=wrap;;fontSize=11;spacing=7;strokeOpacity=100;" vertex="1" zOrder="25" parent="1">
            <mxGeometry x="540" y="-732" width="192" height="324" as="geometry" />
          </mxCell>
        </UserObject>
        <UserObject label="Available" lucidchartObjectId="HQEwhNSgtHvL" id="szmz4Ih0qqdPRHBZK8QK-29">
          <mxCell style="html=1;whiteSpace=wrap;rhombus;fontSize=8;fontColor=#000000;spacing=3;strokeOpacity=100;" vertex="1" zOrder="26" parent="1">
            <mxGeometry x="444" y="-588" width="48" height="36" as="geometry" />
          </mxCell>
        </UserObject>
        <UserObject label="" lucidchartObjectId="oREwRX0~sYys" id="szmz4Ih0qqdPRHBZK8QK-30">
          <mxCell style="html=1;jettySize=18;fontSize=11;rounded=1;arcSize=0;edgeStyle=orthogonalEdgeStyle;startArrow=none;;endArrow=block;endFill=1;;exitX=1.003125;exitY=0.48148148148148145;exitPerimeter=1;entryX=-0.020833333333332846;entryY=0.5;entryPerimeter=1;" edge="1" parent="1" source="szmz4Ih0qqdPRHBZK8QK-18" target="szmz4Ih0qqdPRHBZK8QK-29">
            <mxGeometry width="100" height="100" relative="1" as="geometry">
              <Array as="points" />
            </mxGeometry>
          </mxCell>
        </UserObject>
        <UserObject label="" lucidchartObjectId="wREw8QWyFLum" id="szmz4Ih0qqdPRHBZK8QK-31">
          <mxCell style="html=1;jettySize=18;fontSize=11;fontColor=#000000;rounded=1;arcSize=0;edgeStyle=orthogonalEdgeStyle;startArrow=none;;endArrow=block;endFill=1;;exitX=0.49999999999999967;exitY=1.0208333333333333;exitPerimeter=1;entryX=0.5;entryY=-0.008333333333333333;entryPerimeter=1;" edge="1" parent="1" source="szmz4Ih0qqdPRHBZK8QK-29" target="szmz4Ih0qqdPRHBZK8QK-35">
            <mxGeometry width="100" height="100" relative="1" as="geometry">
              <Array as="points" />
            </mxGeometry>
          </mxCell>
        </UserObject>
        <mxCell id="szmz4Ih0qqdPRHBZK8QK-32" value="No" style="text;html=1;resizable=0;labelBackgroundColor=#ffffff;align=center;verticalAlign=middle;fontColor=#000000;;fontSize=11;" vertex="1" parent="szmz4Ih0qqdPRHBZK8QK-31">
          <mxGeometry relative="1" as="geometry" />
        </mxCell>
        <UserObject label="" lucidchartObjectId="BREw8RgC6dob" id="szmz4Ih0qqdPRHBZK8QK-33">
          <mxCell style="html=1;jettySize=18;fontSize=11;fontColor=#000000;rounded=1;arcSize=0;edgeStyle=orthogonalEdgeStyle;startArrow=none;;endArrow=block;endFill=1;;exitX=1.0208333333333321;exitY=0.5;exitPerimeter=1;entryX=-0.008333333333333342;entryY=0.5;entryPerimeter=1;" edge="1" parent="1" source="szmz4Ih0qqdPRHBZK8QK-29" target="szmz4Ih0qqdPRHBZK8QK-40">
            <mxGeometry width="100" height="100" relative="1" as="geometry">
              <Array as="points" />
            </mxGeometry>
          </mxCell>
        </UserObject>
        <mxCell id="szmz4Ih0qqdPRHBZK8QK-34" value="Yes" style="text;html=1;resizable=0;labelBackgroundColor=#ffffff;align=center;verticalAlign=middle;fontColor=#000000;;fontSize=11;" vertex="1" parent="szmz4Ih0qqdPRHBZK8QK-33">
          <mxGeometry relative="1" as="geometry" />
        </mxCell>
        <UserObject label="Recidance details not avilable " lucidchartObjectId="ZSEwo6Pg9PQt" id="szmz4Ih0qqdPRHBZK8QK-35">
          <mxCell style="html=1;whiteSpace=wrap;shape=process;fontSize=11;fontColor=#000000;spacing=3;strokeOpacity=100;" vertex="1" zOrder="30" parent="1">
            <mxGeometry x="432" y="-504" width="96" height="72" as="geometry" />
          </mxCell>
        </UserObject>
        <UserObject label="Type" lucidchartObjectId="RTEwSJ0n74q9" id="szmz4Ih0qqdPRHBZK8QK-36">
          <mxCell style="html=1;whiteSpace=wrap;;fontSize=11;fontColor=#000000;spacing=7;strokeOpacity=100;" vertex="1" zOrder="31" parent="1">
            <mxGeometry x="552" y="-666" width="72" height="30" as="geometry" />
          </mxCell>
        </UserObject>
        <UserObject label="Person name" lucidchartObjectId="2TEwaW74Ru1T" id="szmz4Ih0qqdPRHBZK8QK-37">
          <mxCell style="html=1;whiteSpace=wrap;;fontSize=11;fontColor=#000000;spacing=7;strokeOpacity=100;" vertex="1" zOrder="32" parent="1">
            <mxGeometry x="552" y="-623" width="72" height="40" as="geometry" />
          </mxCell>
        </UserObject>
        <UserObject label="" lucidchartObjectId="LVEwy_7wn3Nd" id="szmz4Ih0qqdPRHBZK8QK-38">
          <mxCell style="html=1;whiteSpace=wrap;shape=image;fontSize=11;spacing=0;strokeColor=none;strokeOpacity=100;strokeWidth=0;image=https://images.app.lucidchart.com/images/bb67e6d4-f212-4169-abc3-5716e61b1323/content;" vertex="1" zOrder="33" parent="1">
            <mxGeometry x="648" y="-684" width="67" height="67" as="geometry" />
          </mxCell>
        </UserObject>
        <UserObject label="kumar" lucidchartObjectId="IZEwtPRbCxiF" id="szmz4Ih0qqdPRHBZK8QK-39">
          <mxCell style="html=1;whiteSpace=wrap;;fontSize=11;fontColor=#000000;spacing=7;strokeOpacity=100;" vertex="1" zOrder="34" parent="1">
            <mxGeometry x="636" y="-617" width="91" height="30" as="geometry" />
          </mxCell>
        </UserObject>
        <UserObject label="picture Picture" lucidchartObjectId="b0EwRnRN4k5U" id="szmz4Ih0qqdPRHBZK8QK-40">
          <mxCell style="html=1;whiteSpace=wrap;;fontSize=11;fontColor=#000000;spacing=7;strokeOpacity=100;" vertex="1" zOrder="35" parent="1">
            <mxGeometry x="552" y="-578" width="72" height="40" as="geometry" />
          </mxCell>
        </UserObject>
        <UserObject label="" lucidchartObjectId="G1EwPb6LX3ii" id="szmz4Ih0qqdPRHBZK8QK-41">
          <mxCell style="html=1;whiteSpace=wrap;shape=image;fontSize=11;spacing=0;strokeColor=none;strokeOpacity=100;strokeWidth=0;image=https://images.app.lucidchart.com/images/2338b2cf-f651-40d2-bb2c-45e84b016daf/content;" vertex="1" zOrder="36" parent="1">
            <mxGeometry x="651" y="-576" width="40" height="43" as="geometry" />
          </mxCell>
        </UserObject>
        <UserObject label="Comment" lucidchartObjectId="61EwTQBH_Uqk" id="szmz4Ih0qqdPRHBZK8QK-42">
          <mxCell style="html=1;whiteSpace=wrap;;fontSize=11;fontColor=#000000;spacing=7;strokeOpacity=100;" vertex="1" zOrder="37" parent="1">
            <mxGeometry x="552" y="-516" width="72" height="40" as="geometry" />
          </mxCell>
        </UserObject>
        <UserObject label="Submit" lucidchartObjectId="f2EwF5lRiE2G" id="szmz4Ih0qqdPRHBZK8QK-43">
          <mxCell style="html=1;whiteSpace=wrap;;fontSize=11;fontColor=#000000;spacing=7;strokeOpacity=100;" vertex="1" zOrder="38" parent="1">
            <mxGeometry x="636" y="-516" width="72" height="40" as="geometry" />
          </mxCell>
        </UserObject>
        <UserObject label="" lucidchartObjectId="R2Ew7nOGZlU8" id="szmz4Ih0qqdPRHBZK8QK-44">
          <mxCell style="html=1;whiteSpace=wrap;shape=image;fontSize=11;spacing=0;strokeColor=none;strokeOpacity=100;strokeWidth=0;image=https://images.app.lucidchart.com/images/1aadf8a4-94a9-4e43-bdd0-10c092a80ef5/content;" vertex="1" zOrder="39" parent="1">
            <mxGeometry x="684" y="-720" width="36" height="36" as="geometry" />
          </mxCell>
        </UserObject>
        <UserObject label="" lucidchartObjectId="S3EwAhK69BVo" id="szmz4Ih0qqdPRHBZK8QK-45">
          <mxCell style="html=1;whiteSpace=wrap;shape=image;fontSize=11;spacing=0;strokeColor=none;strokeOpacity=100;strokeWidth=0;image=https://images.app.lucidchart.com/images/e1f1ccbd-1fcc-44f3-9baa-c4e6364228b6/content;" vertex="1" zOrder="40" parent="1">
            <mxGeometry x="553" y="-456" width="37" height="40" as="geometry" />
          </mxCell>
        </UserObject>
        <UserObject label="" lucidchartObjectId="S3EweQCzot~-" id="szmz4Ih0qqdPRHBZK8QK-46">
          <mxCell style="html=1;whiteSpace=wrap;shape=image;fontSize=11;spacing=0;strokeColor=none;strokeOpacity=100;strokeWidth=0;image=https://images.app.lucidchart.com/images/3a908d80-9f85-4c4c-aa85-2458ae20dbf4/content;" vertex="1" zOrder="41" parent="1">
            <mxGeometry x="603" y="-452" width="34" height="37" as="geometry" />
          </mxCell>
        </UserObject>
        <UserObject label="" lucidchartObjectId="S3EwpIvGGSiM" id="szmz4Ih0qqdPRHBZK8QK-47">
          <mxCell style="html=1;whiteSpace=wrap;shape=image;fontSize=11;spacing=0;strokeColor=none;strokeOpacity=100;strokeWidth=0;image=https://images.app.lucidchart.com/images/6212b15c-db97-46a9-8765-ff9c5da97a0d/content;" vertex="1" zOrder="42" parent="1">
            <mxGeometry x="647" y="-452" width="39" height="40" as="geometry" />
          </mxCell>
        </UserObject>
        <UserObject label="" lucidchartObjectId="S3EwgwZ4LlH7" id="szmz4Ih0qqdPRHBZK8QK-48">
          <mxCell style="html=1;whiteSpace=wrap;shape=image;fontSize=11;spacing=0;strokeColor=none;strokeOpacity=100;strokeWidth=0;image=https://images.app.lucidchart.com/images/7d8e6fdd-2dd8-4db6-a04e-7de87b221550/content;" vertex="1" zOrder="43" parent="1">
            <mxGeometry x="693" y="-452" width="36" height="36" as="geometry" />
          </mxCell>
        </UserObject>
        <UserObject label="Approved" lucidchartObjectId="_4EwKiRY9WRN" id="szmz4Ih0qqdPRHBZK8QK-49">
          <mxCell style="html=1;whiteSpace=wrap;rhombus;fontSize=11;fontColor=#000000;spacing=3;strokeOpacity=100;" vertex="1" zOrder="44" parent="1">
            <mxGeometry x="780" y="-600" width="72" height="42" as="geometry" />
          </mxCell>
        </UserObject>
        <UserObject label="" lucidchartObjectId="85EwyqYRJG8o" id="szmz4Ih0qqdPRHBZK8QK-50">
          <mxCell style="html=1;jettySize=18;fontSize=11;rounded=1;arcSize=0;edgeStyle=orthogonalEdgeStyle;startArrow=none;;endArrow=block;endFill=1;;exitX=1.003125;exitY=0.47481481481481497;exitPerimeter=1;entryX=0.003461376203037029;entryY=0.5200000000000014;entryPerimeter=1;" edge="1" parent="1" source="szmz4Ih0qqdPRHBZK8QK-28" target="szmz4Ih0qqdPRHBZK8QK-49">
            <mxGeometry width="100" height="100" relative="1" as="geometry">
              <Array as="points" />
            </mxGeometry>
          </mxCell>
        </UserObject>
        <UserObject label="" lucidchartObjectId="_5Ew2RVMCvom" id="szmz4Ih0qqdPRHBZK8QK-51">
          <mxCell style="html=1;jettySize=18;fontSize=11;fontColor=#000000;rounded=1;arcSize=0;edgeStyle=orthogonalEdgeStyle;startArrow=none;;endArrow=block;endFill=1;;exitX=0.5;exitY=1.0165386237969642;exitPerimeter=1;entryX=0.5;entryY=-0.0125;entryPerimeter=1;" edge="1" parent="1" source="szmz4Ih0qqdPRHBZK8QK-49" target="szmz4Ih0qqdPRHBZK8QK-53">
            <mxGeometry width="100" height="100" relative="1" as="geometry">
              <Array as="points" />
            </mxGeometry>
          </mxCell>
        </UserObject>
        <mxCell id="szmz4Ih0qqdPRHBZK8QK-52" value="Yes" style="text;html=1;resizable=0;labelBackgroundColor=#ffffff;align=center;verticalAlign=middle;fontColor=#000000;;fontSize=11;" vertex="1" parent="szmz4Ih0qqdPRHBZK8QK-51">
          <mxGeometry relative="1" as="geometry" />
        </mxCell>
        <UserObject label="Allowed the person" lucidchartObjectId="e6EwW-vkyeMB" id="szmz4Ih0qqdPRHBZK8QK-53">
          <mxCell style="html=1;whiteSpace=wrap;shape=process;fontSize=11;fontColor=#000000;spacing=3;" vertex="1" zOrder="47" parent="1">
            <mxGeometry x="768" y="-516" width="96" height="48" as="geometry" />
          </mxCell>
        </UserObject>
        <UserObject label="" lucidchartObjectId="I6EwA44lAKbT" id="szmz4Ih0qqdPRHBZK8QK-54">
          <mxCell style="html=1;jettySize=18;fontSize=11;fontColor=#000000;rounded=1;arcSize=0;edgeStyle=orthogonalEdgeStyle;startArrow=none;;endArrow=block;endFill=1;;exitX=1.0165386237969642;exitY=0.5;exitPerimeter=1;entryX=-0.01;entryY=0.5;entryPerimeter=1;" edge="1" parent="1" source="szmz4Ih0qqdPRHBZK8QK-49" target="szmz4Ih0qqdPRHBZK8QK-56">
            <mxGeometry width="100" height="100" relative="1" as="geometry">
              <Array as="points" />
            </mxGeometry>
          </mxCell>
        </UserObject>
        <mxCell id="szmz4Ih0qqdPRHBZK8QK-55" value="No" style="text;html=1;resizable=0;labelBackgroundColor=#ffffff;align=center;verticalAlign=middle;fontColor=#000000;;fontSize=11;" vertex="1" parent="szmz4Ih0qqdPRHBZK8QK-54">
          <mxGeometry relative="1" as="geometry" />
        </mxCell>
        <UserObject label="Not Allowed the person" lucidchartObjectId="16EwB8QYn2ge" id="szmz4Ih0qqdPRHBZK8QK-56">
          <mxCell style="html=1;whiteSpace=wrap;shape=process;fontSize=11;fontColor=#000000;spacing=3;" vertex="1" zOrder="49" parent="1">
            <mxGeometry x="900" y="-615" width="60" height="72" as="geometry" />
          </mxCell>
        </UserObject>
        <UserObject label="" lucidchartObjectId="y7Ew.fsIQOOH" id="szmz4Ih0qqdPRHBZK8QK-57">
          <mxCell style="html=1;jettySize=18;fontSize=11;rounded=1;arcSize=0;edgeStyle=orthogonalEdgeStyle;startArrow=none;;endArrow=block;endFill=1;;exitX=0.5;exitY=-0.016538623796964202;exitPerimeter=1;entryX=0.5;entryY=1.011213445932793;entryPerimeter=1;" edge="1" parent="1" source="szmz4Ih0qqdPRHBZK8QK-49" target="szmz4Ih0qqdPRHBZK8QK-58">
            <mxGeometry width="100" height="100" relative="1" as="geometry">
              <Array as="points" />
            </mxGeometry>
          </mxCell>
        </UserObject>
        <UserObject label="Unic number will generated and it will used to valide the recidance to give the item" lucidchartObjectId="D7Ew83AHtcyH" id="szmz4Ih0qqdPRHBZK8QK-58">
          <mxCell style="html=1;whiteSpace=wrap;;fontSize=11;fontColor=#000000;spacing=7;" vertex="1" zOrder="51" parent="1">
            <mxGeometry x="780" y="-738" width="156" height="54" as="geometry" />
          </mxCell>
        </UserObject>
        <UserObject label="" lucidchartObjectId="R7EwtKtpFmeg" id="szmz4Ih0qqdPRHBZK8QK-59">
          <mxCell style="html=1;jettySize=18;fontSize=11;rounded=1;arcSize=0;edgeStyle=elbowEdgeStyle;startArrow=none;;endArrow=block;endFill=1;;exitX=0.5;exitY=1.011213445932793;exitPerimeter=1;" edge="1" parent="1" source="szmz4Ih0qqdPRHBZK8QK-58">
            <mxGeometry width="100" height="100" relative="1" as="geometry">
              <Array as="points" />
              <mxPoint x="816" y="-600" as="targetPoint" />
            </mxGeometry>
          </mxCell>
        </UserObject>
        <UserObject label="" lucidchartObjectId="k_EwaipAak0C" id="szmz4Ih0qqdPRHBZK8QK-60">
          <mxCell style="html=1;whiteSpace=wrap;shape=image;fontSize=11;spacing=0;strokeColor=none;strokeOpacity=100;strokeWidth=0;image=https://images.app.lucidchart.com/images/1aadf8a4-94a9-4e43-bdd0-10c092a80ef5/content;" vertex="1" zOrder="53" parent="1">
            <mxGeometry x="936" y="-725" width="36" height="36" as="geometry" />
          </mxCell>
        </UserObject>
        <UserObject label="" lucidchartObjectId="J_Ew~-sSyG65" id="szmz4Ih0qqdPRHBZK8QK-61">
          <mxCell style="html=1;whiteSpace=wrap;shape=image;fontSize=11;spacing=0;strokeColor=none;strokeOpacity=100;strokeWidth=0;image=https://images.app.lucidchart.com/images/e1f1ccbd-1fcc-44f3-9baa-c4e6364228b6/content;" vertex="1" zOrder="54" parent="1">
            <mxGeometry x="780" y="-456" width="37" height="40" as="geometry" />
          </mxCell>
        </UserObject>
        <UserObject label="" lucidchartObjectId="J_EwK08PdsR0" id="szmz4Ih0qqdPRHBZK8QK-62">
          <mxCell style="html=1;whiteSpace=wrap;shape=image;fontSize=11;spacing=0;strokeColor=none;strokeOpacity=100;strokeWidth=0;image=https://images.app.lucidchart.com/images/3a908d80-9f85-4c4c-aa85-2458ae20dbf4/content;" vertex="1" zOrder="55" parent="1">
            <mxGeometry x="830" y="-452" width="34" height="37" as="geometry" />
          </mxCell>
        </UserObject>
        <UserObject label="" lucidchartObjectId="J_EwMCJ7G1Wp" id="szmz4Ih0qqdPRHBZK8QK-63">
          <mxCell style="html=1;whiteSpace=wrap;shape=image;fontSize=11;spacing=0;strokeColor=none;strokeOpacity=100;strokeWidth=0;image=https://images.app.lucidchart.com/images/6212b15c-db97-46a9-8765-ff9c5da97a0d/content;" vertex="1" zOrder="56" parent="1">
            <mxGeometry x="874" y="-452" width="39" height="40" as="geometry" />
          </mxCell>
        </UserObject>
        <UserObject label="" lucidchartObjectId="J_EwG82hYu9M" id="szmz4Ih0qqdPRHBZK8QK-64">
          <mxCell style="html=1;whiteSpace=wrap;shape=image;fontSize=11;spacing=0;strokeColor=none;strokeOpacity=100;strokeWidth=0;image=https://images.app.lucidchart.com/images/7d8e6fdd-2dd8-4db6-a04e-7de87b221550/content;" vertex="1" zOrder="57" parent="1">
            <mxGeometry x="921" y="-452" width="36" height="36" as="geometry" />
          </mxCell>
        </UserObject>
        <UserObject label="" lucidchartObjectId="b.Fw-80G5NtF" id="szmz4Ih0qqdPRHBZK8QK-65">
          <mxCell style="html=1;jettySize=18;fontSize=11;rounded=1;arcSize=0;edgeStyle=orthogonalEdgeStyle;startArrow=none;;endArrow=block;endFill=1;;exitX=0.9641233002556298;exitY=0.28283053828359367;exitPerimeter=1;entryX=-0.003125;entryY=0.2270860056716435;entryPerimeter=1;" edge="1" parent="1" source="szmz4Ih0qqdPRHBZK8QK-10" target="szmz4Ih0qqdPRHBZK8QK-18">
            <mxGeometry width="100" height="100" relative="1" as="geometry">
              <Array as="points" />
            </mxGeometry>
          </mxCell>
        </UserObject>
      </root>
    </mxGraphModel>
  </diagram>
</mxfile>
